<?xml version="1.0" standalone="no"?>
<!DOCTYPE svg PUBLIC "-//W3C//DTD SVG 20010904//EN"
 "http://www.w3.org/TR/2001/REC-SVG-20010904/DTD/svg10.dtd">
<svg version="1.0" xmlns="http://www.w3.org/2000/svg"
 width="2379.000000pt" height="2379.000000pt" viewBox="0 0 2379.000000 2379.000000"
 preserveAspectRatio="xMidYMid meet">
<metadata>
Created by potrace 1.11, written by Peter Selinger 2001-2013
</metadata>
<g transform="translate(0.000000,2379.000000) scale(0.100000,-0.100000)"
fill="#000000" stroke="none">
<path d="M9850 15465 c-74 -108 -189 -273 -255 -368 -67 -94 -146 -208 -176
-252 -30 -44 -240 -345 -465 -670 -226 -324 -438 -630 -473 -680 -34 -49 -86
-124 -115 -165 -29 -41 -82 -118 -118 -170 -36 -52 -129 -187 -206 -298 -78
-112 -142 -206 -142 -208 0 -2 127 -4 283 -4 l282 1 100 141 c55 78 171 241
257 362 87 122 163 229 170 239 7 11 31 44 54 75 22 32 130 183 239 337 399
563 689 971 705 992 17 22 18 21 136 -145 65 -92 162 -228 214 -302 53 -74
208 -292 345 -485 137 -192 303 -426 370 -520 67 -93 204 -286 305 -428 100
-142 188 -261 194 -263 6 -2 127 -3 267 -2 l256 3 -358 515 c-197 283 -397
573 -446 643 -143 207 -229 332 -387 558 -82 118 -177 255 -211 304 -34 50
-159 230 -278 400 -118 171 -235 338 -259 373 -56 82 -138 195 -147 204 -3 4
-67 -80 -141 -187z"/>
<path d="M14258 15483 c-68 -98 -144 -207 -169 -242 -89 -129 -306 -441 -476
-685 -65 -94 -143 -206 -174 -250 -30 -45 -127 -184 -215 -311 -88 -126 -185
-266 -215 -310 -31 -44 -87 -125 -126 -180 -38 -55 -90 -129 -114 -165 -278
-400 -463 -667 -472 -677 -7 -10 49 -13 276 -13 l286 0 133 188 c73 103 291
410 485 682 193 272 389 548 435 613 46 64 89 125 96 135 28 38 144 200 172
239 187 270 223 315 233 297 6 -11 15 -24 21 -31 6 -6 121 -167 256 -358 135
-190 311 -439 392 -553 81 -114 152 -214 158 -222 15 -22 458 -645 551 -775
43 -60 82 -115 87 -121 5 -5 22 -29 37 -52 l28 -42 263 0 c145 0 264 2 264 5
0 2 -31 48 -68 102 -38 54 -93 134 -124 178 -30 44 -196 283 -368 530 -172
248 -343 493 -378 545 -36 52 -84 121 -106 152 -23 31 -97 138 -166 238 -69
99 -180 260 -247 356 -68 97 -123 180 -123 184 0 5 -4 10 -8 12 -4 2 -37 46
-73 98 -125 182 -412 595 -419 603 -4 5 -64 -71 -132 -170z"/>
<path d="M18680 15549 c-41 -60 -109 -158 -150 -217 -42 -59 -105 -150 -141
-202 -63 -91 -626 -902 -698 -1005 -19 -27 -116 -167 -215 -310 -99 -143 -182
-262 -185 -265 -3 -3 -10 -13 -16 -22 -5 -10 -33 -50 -61 -90 -27 -40 -158
-228 -290 -418 -132 -190 -243 -351 -248 -357 -6 -10 52 -13 277 -13 l284 0
104 147 c57 81 174 246 259 365 85 120 183 257 217 305 57 82 470 662 670 942
48 68 133 188 189 267 l101 143 35 -47 c19 -26 80 -110 134 -187 457 -643 925
-1303 1007 -1418 34 -48 73 -103 87 -121 14 -19 32 -44 40 -56 8 -12 42 -60
75 -106 33 -46 84 -117 113 -159 l54 -75 264 0 c145 0 264 1 264 3 0 2 -230
334 -562 811 -46 66 -108 156 -139 200 -30 45 -109 158 -174 251 -312 449
-953 1371 -1074 1547 -75 108 -138 197 -141 197 -3 0 -39 -49 -80 -110z"/>
<path d="M715 13060 l-120 -5 -3 -40 c-2 -22 -5 -60 -7 -85 l-5 -45 92 -22
c98 -24 232 -84 288 -130 61 -48 132 -122 127 -130 -4 -6 -41 -209 -63 -348
-3 -16 -18 -102 -34 -190 -16 -88 -32 -177 -36 -199 -3 -21 -8 -48 -10 -60 -5
-26 -7 -38 -39 -218 -14 -82 -37 -214 -51 -295 -15 -82 -28 -159 -30 -173 -1
-14 -6 -41 -9 -60 -4 -19 -9 -46 -11 -60 -3 -14 -9 -47 -14 -75 -5 -27 -12
-66 -15 -85 -3 -19 -8 -42 -10 -50 -2 -8 -7 -35 -10 -60 -3 -25 -8 -52 -10
-60 -2 -8 -7 -35 -11 -60 -10 -68 -13 -83 -18 -106 -2 -12 -7 -39 -10 -60 -3
-22 -8 -50 -11 -64 -12 -59 -16 -77 -21 -110 -15 -97 -67 -387 -84 -475 -11
-55 -22 -111 -25 -124 -14 -72 -72 -236 -108 -305 -69 -129 -166 -198 -336
-238 -47 -11 -92 -22 -99 -24 -11 -3 -14 -29 -16 -139 l-1 -40 662 0 c439 0
664 3 666 10 3 9 6 50 11 145 1 22 -5 26 -52 36 -205 46 -333 144 -392 301
-24 65 -30 103 -30 213 0 97 1 102 36 299 15 80 28 155 29 166 2 11 10 61 20
110 9 50 18 101 20 115 2 14 6 34 9 46 5 24 82 461 91 514 3 19 10 55 15 80 5
25 19 99 30 165 12 66 28 158 36 205 19 107 23 129 29 160 3 14 7 41 11 60 3
19 9 55 14 80 5 25 12 61 15 80 2 19 7 46 9 60 13 66 48 262 58 318 6 34 14
62 17 62 3 0 39 -102 79 -227 41 -126 114 -354 164 -508 49 -154 118 -368 153
-475 35 -107 100 -310 145 -450 95 -296 172 -535 205 -635 13 -38 58 -178 100
-310 134 -418 176 -549 190 -585 l13 -35 72 0 c39 0 75 2 78 5 4 3 275 541
603 1195 329 655 694 1384 813 1620 l216 430 -5 -930 c-2 -511 -5 -1090 -6
-1286 -1 -364 -8 -451 -45 -563 -47 -143 -162 -237 -334 -271 -106 -22 -96
-10 -102 -127 l-3 -73 763 0 c419 0 763 2 763 5 2 8 8 62 13 120 l4 56 -81 11
c-160 22 -264 84 -306 183 -56 130 -56 133 -55 1055 3 1331 8 1964 17 2040 19
164 64 272 147 355 76 77 169 116 295 125 25 1 49 6 53 9 3 4 7 26 9 49 1 23
5 61 7 85 l5 42 -167 1 c-317 1 -855 -1 -857 -3 -1 -2 -352 -705 -779 -1563
-428 -858 -780 -1562 -782 -1564 -2 -2 -6 -2 -8 0 -4 4 -88 257 -131 399 -21
69 -215 676 -452 1415 -53 167 -96 302 -158 500 -31 99 -59 187 -62 195 -3 8
-7 20 -9 25 -1 6 -25 80 -52 165 -28 85 -70 217 -94 292 -40 128 -45 138 -68
138 -156 4 -853 4 -945 0z"/>
<path d="M6369 12447 c-1 -15 -2 -30 -3 -34 -1 -5 -6 -46 -10 -93 -4 -47 -9
-105 -11 -130 -3 -25 -7 -74 -10 -110 -14 -161 -23 -231 -31 -239 -2 -2 -4 10
-4 27 0 43 -36 134 -65 166 -31 34 -38 61 -28 111 13 60 5 92 -30 128 -51 51
-67 83 -68 134 l0 48 -15 -40 c-21 -54 -13 -116 21 -165 l28 -40 -28 -61 c-30
-67 -30 -125 -2 -157 30 -33 67 -116 67 -148 0 -69 -11 -66 -52 13 -22 43 -58
112 -80 152 -22 41 -61 113 -85 160 -72 137 -105 195 -113 204 -5 6 113 -403
175 -603 5 -17 -3 -11 -25 20 -50 70 -81 99 -128 123 -47 23 -57 36 -66 82 -3
17 -8 39 -11 50 -7 22 -56 58 -95 70 -36 11 -70 44 -91 90 -15 33 -19 36 -19
16 0 -35 21 -103 39 -125 9 -10 29 -25 46 -33 41 -21 45 -29 45 -96 0 -78 21
-119 81 -157 61 -40 105 -90 114 -130 4 -17 5 -33 3 -35 -4 -4 -162 121 -339
267 -67 55 -162 131 -184 148 -19 15 -19 15 0 -10 35 -45 347 -414 384 -454
l36 -39 -46 31 c-51 34 -155 72 -184 68 -30 -5 -53 11 -81 55 -30 48 -74 69
-145 69 -52 0 -92 19 -131 64 -28 31 -21 10 17 -49 35 -55 45 -61 138 -80 21
-4 32 -15 43 -43 39 -99 63 -124 130 -136 70 -13 91 -20 122 -41 35 -24 67
-63 59 -71 -2 -3 -33 4 -68 15 -113 35 -361 112 -459 141 -52 16 -104 32 -115
35 -34 12 52 -37 245 -137 261 -136 309 -162 305 -166 -1 -2 -31 2 -64 8 -66
12 -90 10 -158 -10 -40 -12 -44 -11 -89 19 -54 35 -102 40 -149 15 -39 -21
-102 -22 -142 -2 -45 23 -32 -2 19 -35 45 -29 121 -37 159 -17 16 9 27 2 74
-45 31 -31 65 -56 77 -57 13 0 30 -2 38 -2 8 -1 33 2 55 7 22 5 56 9 77 9 39
-1 122 -37 114 -51 -3 -4 -24 -9 -48 -10 -24 -1 -56 -3 -73 -5 -16 -2 -70 -7
-120 -11 -49 -4 -101 -8 -115 -10 -14 -2 -65 -7 -115 -11 -49 -3 -97 -8 -105
-10 -8 -1 -35 -3 -59 -3 -55 -1 -48 -11 11 -16 23 -1 70 -6 103 -9 33 -3 132
-13 220 -21 265 -26 280 -27 284 -31 2 -2 -9 -4 -26 -4 -51 0 -136 -31 -185
-67 -50 -36 -59 -38 -125 -27 -57 9 -83 1 -133 -43 -52 -46 -63 -51 -120 -53
l-45 -2 50 -17 c56 -20 96 -15 142 16 45 32 57 32 109 7 71 -34 118 -32 181
11 47 32 109 53 141 49 6 -1 21 -2 32 -3 11 0 20 -5 20 -10 0 -6 -137 -78
-305 -162 -168 -84 -303 -154 -302 -155 2 -2 32 6 68 17 35 11 71 22 79 24 13
3 398 114 455 131 11 4 2 -7 -20 -23 -54 -41 -80 -70 -108 -123 -22 -42 -28
-46 -86 -61 -34 -9 -67 -21 -72 -26 -5 -5 -24 -38 -42 -74 -27 -53 -40 -68
-82 -91 l-50 -28 45 6 c64 8 110 33 129 67 30 56 42 63 107 61 77 -3 113 15
150 73 47 76 124 133 160 119 11 -4 -3 -28 -58 -93 -40 -49 -75 -90 -79 -93
-3 -3 -54 -66 -114 -140 -60 -74 -122 -148 -137 -164 -34 -36 -37 -54 -5 -27
12 11 56 48 98 83 154 130 183 153 193 163 55 50 197 165 191 154 -5 -8 -23
-36 -40 -64 -40 -63 -46 -79 -52 -140 -3 -41 -10 -55 -36 -75 -78 -63 -87 -78
-87 -144 0 -64 -20 -111 -63 -148 -30 -27 -13 -22 41 12 54 33 69 55 80 120 8
47 12 51 104 89 52 22 76 57 84 123 3 23 11 55 18 72 15 36 69 92 74 78 1 -5
-18 -81 -44 -168 -25 -88 -48 -166 -50 -174 -2 -8 -21 -78 -43 -154 -22 -77
-38 -142 -36 -145 3 -2 50 90 105 205 118 245 155 316 187 364 25 38 28 34 13
-22 -15 -51 -18 -128 -8 -158 23 -63 21 -100 -8 -141 -32 -47 -36 -106 -11
-156 21 -40 22 -83 2 -130 l-16 -37 25 23 c49 46 63 112 40 189 -5 19 3 32 44
73 60 59 71 95 52 176 -13 61 -7 130 15 159 13 18 14 18 19 -6 3 -14 8 -52 11
-85 3 -33 7 -73 10 -90 2 -16 6 -54 9 -82 12 -108 18 -159 22 -183 2 -14 6
-56 10 -95 6 -68 10 -83 18 -74 4 4 12 78 22 202 3 38 7 85 9 105 15 155 18
189 21 207 1 11 3 30 3 43 1 23 21 32 21 10 0 -34 24 -92 61 -147 38 -58 40
-63 31 -105 -14 -65 -4 -103 37 -145 45 -46 61 -80 61 -134 l1 -42 14 40 c8
22 15 53 15 68 0 35 -22 88 -43 106 -23 18 -21 31 9 97 32 71 29 102 -22 184
-29 47 -38 74 -42 118 -4 50 -2 55 11 42 8 -8 39 -62 69 -120 31 -58 70 -132
88 -165 19 -33 52 -94 74 -135 23 -41 49 -92 59 -112 21 -45 39 -59 26 -21
-13 37 -99 323 -104 348 -3 11 -18 63 -35 115 -16 52 -28 95 -26 97 2 2 15
-14 30 -36 25 -36 52 -58 127 -104 18 -11 29 -28 34 -54 13 -74 32 -99 101
-134 64 -31 77 -44 102 -104 12 -28 12 -27 8 22 -6 69 -26 104 -74 131 -48 26
-53 39 -48 108 6 69 -15 106 -89 158 -58 40 -111 112 -103 137 3 8 151 -100
178 -130 3 -4 75 -62 160 -130 85 -68 164 -131 174 -140 36 -30 7 9 -188 244
-104 127 -194 236 -200 244 -6 7 11 -1 36 -18 56 -38 119 -62 173 -65 35 -2
45 -9 77 -51 46 -60 65 -71 135 -74 54 -2 81 -12 133 -49 l24 -17 -23 40 c-29
52 -64 77 -115 83 -53 6 -59 11 -85 82 -26 71 -57 96 -138 111 -32 6 -69 17
-83 24 -29 15 -76 63 -69 70 3 2 59 -11 125 -31 65 -20 135 -40 154 -46 19 -5
76 -22 125 -37 85 -27 185 -56 230 -68 32 -9 17 0 -100 62 -60 32 -114 61
-120 65 -5 4 -66 37 -135 73 -69 36 -145 77 -170 92 -39 23 -41 26 -15 20 17
-4 39 -9 50 -11 39 -9 121 -4 164 9 43 13 46 13 98 -19 58 -34 85 -36 152 -8
43 18 89 18 137 -1 l39 -16 -30 26 c-64 54 -111 64 -192 40 -17 -6 -32 3 -70
43 -55 56 -84 68 -146 58 -113 -19 -126 -18 -172 4 -25 12 -45 24 -43 25 2 2
37 6 78 10 41 4 86 9 100 10 14 2 57 6 95 10 39 4 77 9 85 10 8 2 49 6 90 10
41 4 84 9 95 11 11 2 41 5 67 5 27 1 48 5 48 9 0 4 -6 7 -12 8 -7 0 -38 3 -68
6 -30 3 -86 8 -125 11 -38 4 -81 8 -95 10 -14 2 -64 6 -111 10 -47 3 -95 8
-105 10 -11 2 -41 4 -69 5 -50 2 -50 2 -15 11 19 5 51 14 72 19 20 6 63 28 97
51 58 39 62 40 102 29 57 -16 104 -5 142 32 50 48 70 58 120 59 53 2 53 15 -1
26 -56 11 -103 4 -137 -21 -47 -35 -59 -36 -106 -9 -67 38 -111 34 -194 -15
-64 -39 -79 -44 -120 -44 -76 0 -74 2 70 77 61 32 137 72 170 90 33 18 110 58
170 90 104 55 156 88 110 70 -11 -4 -29 -10 -40 -12 -11 -3 -72 -21 -135 -40
-63 -19 -122 -36 -130 -39 -8 -2 -78 -22 -154 -44 -77 -22 -141 -38 -144 -36
-2 3 11 12 28 21 42 22 109 92 126 132 16 38 49 63 84 63 45 0 88 36 118 97
25 53 38 66 108 109 16 10 12 11 -21 7 -61 -7 -106 -34 -140 -82 l-30 -44 -78
-2 c-86 -2 -101 -11 -144 -80 -33 -52 -66 -83 -108 -101 -48 -20 -58 -18 -36
9 11 12 75 92 142 177 68 85 126 157 129 160 3 3 30 37 60 75 30 39 60 76 67
83 19 20 16 27 -4 10 -44 -38 -87 -73 -208 -173 -306 -254 -292 -243 -262
-202 31 41 57 99 63 137 2 14 6 36 8 50 3 14 5 30 5 36 1 6 19 23 41 38 56 37
71 64 74 138 3 70 17 103 53 131 39 31 18 32 -31 1 -50 -32 -71 -62 -81 -119
-9 -51 -28 -71 -70 -79 -37 -7 -80 -37 -96 -67 -11 -21 -13 -31 -23 -93 -3
-21 -12 -49 -20 -64 -16 -31 -76 -91 -76 -76 0 10 132 486 150 541 6 18 13 40
15 50 2 10 7 29 10 43 10 37 -9 9 -46 -70 -87 -184 -252 -510 -259 -510 -5 0
-2 24 6 53 18 67 18 115 -1 188 -15 58 -15 59 10 97 35 53 41 101 20 154 -25
63 -27 83 -11 130 9 23 13 44 11 46 -6 6 -55 -73 -64 -104 -5 -18 -4 -51 2
-81 l11 -51 -52 -50 c-34 -33 -52 -60 -53 -76 -1 -14 -2 -32 -3 -38 -1 -7 3
-33 9 -58 15 -59 11 -110 -11 -151 l-18 -34 -12 90 c-6 50 -19 155 -28 235 -9
80 -19 159 -21 176 -2 16 -7 59 -11 95 -7 69 -13 89 -15 46z m150 -688 c230
-51 416 -212 504 -436 46 -116 55 -277 23 -404 -35 -138 -124 -280 -232 -369
-81 -67 -220 -131 -319 -148 -71 -11 -218 -6 -285 11 -190 49 -367 190 -448
357 -55 114 -74 195 -74 310 -1 167 52 316 156 442 162 196 433 291 675 237z"/>
<path d="M6308 11620 c39 -33 43 -41 40 -75 l-3 -39 -59 -1 c-56 -2 -62 0
-103 38 l-43 40 0 -109 1 -109 37 42 c34 39 41 43 87 44 93 2 85 24 84 -199
l0 -198 -38 -1 -38 -1 -1 82 c-1 105 2 116 38 116 20 0 28 4 24 13 -7 18 -204
18 -204 0 0 -7 11 -13 25 -13 13 0 28 -8 33 -17 5 -10 8 -102 7 -204 -1 -193
-7 -223 -43 -217 -8 2 -17 -3 -19 -9 -4 -10 21 -13 101 -13 82 0 104 3 100 13
-2 7 -14 14 -26 14 -31 3 -35 14 -36 113 l-1 90 38 0 38 0 14 -77 c14 -83 16
-81 32 24 7 47 14 53 58 53 l39 0 0 -89 c0 -95 -11 -121 -51 -121 -10 0 -19
-4 -19 -10 0 -6 40 -10 99 -10 56 0 103 4 106 10 3 6 -2 10 -12 10 -11 0 -28
6 -38 14 -18 13 -20 29 -20 198 -1 100 3 191 8 201 5 10 22 23 38 29 48 16 25
23 -82 23 -73 0 -99 -3 -99 -12 0 -7 9 -13 19 -13 39 0 51 -26 51 -115 l0 -84
-42 2 -43 2 -1 198 c0 173 1 197 15 198 98 6 115 1 153 -43 l38 -43 0 110 0
110 -37 -41 c-37 -40 -39 -41 -102 -40 l-65 1 -3 32 c-3 27 3 40 38 78 l42 46
-109 -2 -109 -1 43 -38z"/>
<path d="M6919 11270 c-13 -20 -16 -20 -51 -6 -49 21 -123 20 -159 -1 -38 -22
-63 -76 -55 -116 12 -59 52 -105 124 -141 79 -40 108 -63 121 -99 20 -52 -63
-108 -134 -89 -35 10 -84 68 -87 105 -1 15 -8 27 -15 27 -8 0 -12 -24 -12 -85
0 -68 3 -85 15 -85 7 0 14 7 14 16 0 13 6 15 28 9 103 -28 184 -21 226 21 73
74 28 180 -107 249 -65 34 -93 59 -106 96 -8 23 -6 32 14 53 29 32 97 36 131
8 21 -17 60 -82 49 -82 -3 0 -1 -9 5 -20 19 -35 26 -14 26 69 -1 88 -6 102
-27 71z"/>
<path d="M5844 11271 c-11 -11 -2 -20 23 -23 19 -2 29 -10 33 -28 8 -34 6
-387 -3 -396 -4 -4 -17 -8 -29 -9 -12 -1 -24 -7 -26 -13 -3 -9 24 -12 97 -12
99 0 139 12 81 25 -20 4 -31 14 -34 28 -3 12 -4 104 -4 205 1 185 3 196 41
203 10 2 19 8 20 14 2 9 -189 15 -199 6z"/>
<path d="M6338 10712 c-25 -5 -30 -30 -9 -44 18 -13 25 -35 37 -118 3 -25 7
-46 9 -48 1 -2 6 23 10 55 11 87 13 97 30 109 28 21 18 42 -23 46 -21 1 -45 2
-54 0z"/>
<path d="M6155 10622 c-5 -4 -20 -26 -33 -49 -25 -46 -18 -58 26 -48 17 3 49
-3 90 -19 34 -13 62 -21 62 -18 0 4 -25 25 -55 46 -30 22 -55 45 -55 51 0 19
-24 45 -35 37z"/>
<path d="M6577 10619 c-9 -6 -17 -18 -17 -29 0 -10 -14 -29 -30 -42 -17 -13
-43 -33 -58 -45 l-27 -22 30 8 c17 5 50 16 73 25 30 11 49 13 61 6 32 -17 42
8 21 49 -31 58 -33 60 -53 50z"/>
<path d="M12645 12149 c-176 -28 -344 -128 -439 -264 -85 -120 -118 -232 -115
-385 3 -159 50 -271 159 -380 66 -65 121 -106 370 -270 197 -130 262 -187 301
-265 77 -157 13 -314 -161 -394 -179 -82 -399 -47 -533 85 -73 72 -137 194
-153 290 -3 22 -8 46 -9 54 -2 8 -4 20 -4 26 -1 18 -61 12 -62 -6 -1 -8 -3
-24 -4 -35 -1 -11 -5 -56 -9 -100 -8 -93 -15 -172 -21 -235 -2 -25 -7 -83 -11
-130 -3 -47 -8 -88 -11 -92 -2 -5 11 -8 29 -8 22 0 37 7 45 20 33 52 99 59
238 23 33 -8 71 -17 85 -20 14 -2 45 -9 70 -15 73 -17 287 -18 360 -3 225 49
411 194 489 383 17 40 28 72 26 72 -3 0 0 12 5 26 17 44 20 185 4 257 -25 122
-112 261 -216 348 -34 28 -150 110 -257 182 -250 166 -333 227 -363 269 -60
80 -74 154 -48 243 18 64 93 142 176 181 53 26 69 29 159 29 85 0 108 -4 155
-25 56 -25 149 -95 185 -138 40 -49 96 -147 112 -200 16 -50 19 -53 47 -50 32
3 31 0 40 111 11 124 17 191 21 232 2 22 7 75 11 118 l6 78 -34 -4 c-19 -2
-48 -14 -65 -26 -37 -28 -97 -33 -173 -15 -168 40 -293 50 -405 33z"/>
<path d="M20872 12147 c-5 -7 -71 -147 -147 -312 -76 -165 -155 -338 -177
-385 -22 -47 -59 -128 -83 -180 -23 -52 -66 -144 -94 -204 -28 -59 -51 -110
-51 -111 0 -2 -22 -50 -48 -107 -27 -57 -64 -137 -83 -178 -137 -303 -232
-432 -359 -492 -36 -16 -72 -33 -80 -37 -8 -4 -15 -19 -15 -34 l-2 -26 329 0
328 0 0 34 c0 29 -4 34 -29 40 -46 10 -118 61 -137 97 -28 54 -16 128 41 253
48 106 87 191 102 223 8 17 23 32 32 32 195 5 696 -1 703 -8 5 -5 10 -17 12
-28 3 -10 19 -68 36 -129 54 -186 60 -213 64 -262 8 -98 -39 -141 -200 -182
-36 -10 -41 -15 -42 -40 l-1 -29 492 -1 c518 -1 506 -2 507 44 0 16 -7 21 -32
23 -18 1 -56 14 -85 28 -115 56 -166 156 -279 544 -56 194 -128 443 -179 615
-14 50 -69 236 -121 415 -52 179 -100 343 -107 365 l-14 40 -136 2 c-96 2
-138 -1 -145 -10z m67 -822 c62 -214 114 -396 116 -402 3 -10 -60 -13 -294
-13 l-299 0 70 158 c38 86 83 185 99 220 16 34 29 64 29 67 0 2 21 48 46 102
25 54 61 135 81 181 20 45 37 81 38 80 2 -2 53 -178 114 -393z"/>
<path d="M10105 12094 c-4 -31 -8 -66 -10 -78 -4 -24 -14 -104 -20 -156 -6
-45 -15 -116 -21 -157 -7 -42 0 -51 31 -45 20 3 33 19 56 66 16 33 52 86 79
118 97 109 195 144 427 147 l145 2 -6 -28 c-2 -15 -8 -68 -11 -118 -4 -49 -8
-101 -10 -115 -2 -14 -6 -65 -10 -115 -3 -49 -8 -101 -10 -115 -4 -31 -15
-150 -30 -345 -4 -49 -8 -103 -10 -120 -1 -16 -5 -64 -9 -105 -4 -41 -9 -95
-12 -120 -5 -48 -9 -95 -19 -225 -10 -120 -14 -156 -22 -200 -4 -22 -6 -42 -6
-46 1 -3 -11 -30 -25 -60 -24 -48 -35 -58 -92 -86 -36 -18 -80 -35 -99 -38
-47 -8 -51 -12 -51 -45 l0 -29 474 0 474 0 4 30 c4 25 1 30 -21 36 -14 3 -53
18 -87 33 -87 39 -108 76 -110 195 -1 49 2 122 6 160 4 39 11 111 15 160 3 50
8 101 10 115 2 14 7 65 10 114 4 49 8 103 10 120 2 17 7 69 10 116 4 47 8 96
10 110 2 14 7 63 10 110 4 47 8 99 10 115 1 17 6 68 9 115 4 47 9 96 11 110 2
14 7 68 11 120 4 52 8 104 10 115 1 11 3 24 3 28 2 14 279 5 343 -11 129 -32
214 -114 257 -249 21 -64 24 -68 51 -68 27 0 30 3 31 35 0 19 2 58 4 85 1 28
5 124 9 213 l7 164 -38 -5 c-21 -3 -58 -13 -83 -22 -41 -15 -115 -17 -790 -17
-713 0 -748 0 -805 19 -33 11 -72 20 -86 21 -25 2 -27 -2 -34 -54z"/>
<path d="M21955 12096 c-8 -61 -11 -86 -19 -146 -4 -25 -9 -63 -11 -85 -7 -51
-13 -99 -20 -153 -7 -52 -3 -61 31 -54 20 4 32 17 50 56 54 120 154 212 269
248 59 19 93 23 225 23 l155 0 -1 -30 c-3 -50 -15 -198 -19 -225 -2 -14 -6
-63 -10 -110 -4 -47 -8 -96 -10 -110 -1 -14 -6 -63 -10 -110 -3 -47 -8 -101
-10 -120 -2 -19 -6 -76 -10 -127 -3 -51 -8 -100 -9 -110 -2 -10 -7 -58 -10
-108 -4 -49 -9 -108 -11 -130 -2 -22 -7 -71 -10 -110 -4 -38 -8 -88 -10 -110
-2 -22 -7 -71 -10 -110 -18 -209 -63 -273 -219 -315 -57 -16 -61 -19 -64 -48
l-3 -32 475 1 476 0 0 33 c0 31 -3 33 -50 44 -68 16 -123 53 -146 99 -15 30
-19 59 -19 138 1 92 9 228 20 315 2 19 7 63 10 98 11 135 16 189 20 232 2 25
7 79 10 120 4 41 8 91 10 110 2 19 6 73 10 120 3 47 8 96 10 110 2 14 7 63 10
110 4 47 8 101 10 120 3 30 10 105 20 215 2 17 3 34 4 38 1 11 260 6 326 -6
79 -14 162 -63 207 -123 36 -48 78 -144 78 -179 0 -11 10 -15 35 -15 35 0 35
0 36 48 1 26 2 65 4 87 1 22 5 111 9 197 l7 157 -33 -1 c-18 -1 -48 -7 -67
-15 -18 -8 -50 -17 -70 -19 -20 -3 -362 -6 -761 -6 -700 0 -727 1 -785 20 -33
11 -72 20 -87 20 -24 0 -27 -5 -33 -52z"/>
<path d="M7789 12106 c0 -1 -3 -13 -5 -27 -4 -24 2 -29 50 -53 37 -18 78 -52
126 -104 l71 -77 -6 -80 c-4 -44 -8 -93 -10 -110 -2 -16 -6 -68 -10 -115 -3
-47 -8 -101 -10 -120 -4 -34 -14 -148 -20 -220 -5 -64 -24 -274 -30 -340 -2
-25 -7 -79 -10 -120 -3 -41 -8 -95 -10 -120 -3 -25 -7 -74 -10 -110 -18 -210
-75 -302 -215 -345 -76 -23 -83 -28 -87 -58 l-4 -27 351 1 c261 0 350 3 351
12 0 7 2 20 4 30 4 19 -3 24 -48 31 -68 12 -131 40 -167 76 -58 58 -65 135
-35 415 2 22 7 74 10 115 4 41 8 93 10 115 2 22 6 74 10 115 3 41 8 95 10 120
3 25 7 74 10 110 7 92 16 189 20 230 2 19 7 76 11 125 3 50 9 94 13 98 5 4
300 -357 657 -803 l649 -811 35 3 c27 2 35 8 36 23 2 29 15 183 20 230 2 22 6
69 9 105 3 36 7 83 10 105 2 22 7 81 10 130 4 50 8 101 10 115 2 14 7 61 10
105 4 44 8 96 10 115 2 19 6 69 9 110 4 41 9 95 11 120 2 25 7 73 10 108 3 34
8 90 11 123 3 34 7 80 9 103 15 226 33 302 89 379 39 53 153 109 223 109 21 1
37 36 24 56 -4 6 -142 9 -343 9 l-338 0 0 -32 c0 -29 4 -32 56 -49 72 -23 128
-73 148 -133 19 -55 16 -217 -8 -458 -3 -33 -8 -91 -11 -130 -3 -38 -8 -90
-10 -115 -2 -25 -7 -74 -10 -110 -3 -36 -8 -85 -10 -110 -2 -25 -7 -81 -11
-125 -3 -44 -7 -81 -9 -83 -1 -1 -55 66 -120 149 -65 83 -123 156 -129 162 -7
7 -23 28 -36 47 -13 19 -27 37 -30 40 -6 5 -235 295 -275 348 -11 15 -73 95
-138 177 -65 83 -164 209 -220 280 -55 72 -105 133 -110 136 -7 5 -604 10
-608 5z"/>
<path d="M13690 12084 c0 -13 -1 -27 -2 -31 -2 -3 24 -14 58 -23 160 -45 181
-93 160 -360 -4 -47 -9 -96 -11 -110 -2 -14 -7 -65 -10 -114 -3 -49 -8 -103
-10 -120 -2 -17 -7 -67 -10 -111 -3 -44 -8 -98 -10 -120 -4 -43 -13 -138 -20
-220 -2 -27 -7 -84 -10 -125 -4 -41 -8 -94 -10 -116 -3 -39 -11 -121 -21 -209
-7 -67 -15 -98 -39 -145 -29 -57 -66 -84 -152 -111 -80 -26 -82 -28 -89 -62
l-4 -27 772 3 772 2 7 35 c4 19 9 51 12 70 6 39 25 159 33 205 8 42 12 72 20
131 6 51 6 51 -23 52 -25 0 -32 -6 -47 -41 -26 -61 -98 -165 -147 -215 -24
-24 -77 -60 -118 -80 l-75 -37 -165 0 c-157 0 -169 1 -215 25 -91 46 -103 106
-77 370 6 63 13 140 16 170 2 30 8 84 11 120 4 36 6 72 6 80 0 8 2 28 5 43 l5
28 217 -3 c209 -3 218 -4 266 -28 38 -20 58 -39 82 -79 18 -30 31 -56 31 -60
-1 -3 2 -25 6 -48 7 -41 10 -43 42 -43 33 0 34 2 35 38 0 20 2 44 3 52 3 14
10 89 22 235 3 33 7 78 9 100 3 22 7 77 11 123 l6 82 -34 0 c-32 0 -35 -3 -52
-50 -23 -64 -81 -143 -121 -164 -65 -34 -92 -37 -300 -37 l-210 0 2 58 c1 32
4 85 7 118 3 33 10 116 16 185 6 69 13 143 15 165 3 22 8 76 11 120 3 44 7 91
9 105 2 14 4 38 4 54 l1 28 253 -4 c247 -3 253 -4 308 -29 32 -15 67 -41 82
-61 23 -30 67 -147 82 -220 4 -21 10 -26 30 -24 14 1 27 5 30 8 3 2 7 34 10
69 3 35 8 82 10 104 7 70 18 209 19 240 l1 30 -757 1 -758 1 0 -23z"/>
<path d="M15430 12076 c0 -31 3 -33 53 -45 78 -20 134 -56 157 -101 18 -35 20
-53 15 -162 -3 -68 -7 -139 -10 -158 -5 -49 -13 -142 -20 -230 -4 -41 -8 -91
-10 -110 -2 -19 -7 -71 -10 -115 -3 -44 -8 -96 -10 -115 -2 -19 -7 -69 -10
-110 -3 -41 -8 -95 -10 -120 -6 -61 -13 -142 -20 -217 -3 -35 -7 -91 -10 -125
-17 -195 -72 -277 -205 -308 -30 -7 -60 -14 -66 -15 -13 -4 -25 -53 -15 -60 4
-2 221 -4 483 -4 l476 0 4 29 c4 28 2 31 -36 40 -72 18 -144 60 -168 99 -20
31 -23 49 -23 141 0 94 3 146 20 330 3 30 7 78 10 105 2 28 7 86 10 130 4 44
11 83 17 86 10 6 110 3 158 -5 77 -13 95 -22 144 -70 61 -60 103 -137 216
-401 89 -206 160 -351 212 -430 l33 -50 293 -3 c160 -1 293 1 293 5 8 49 4 54
-50 72 -113 39 -160 101 -291 386 -173 375 -253 505 -340 550 l-32 17 79 32
c107 43 171 86 237 157 96 104 138 221 131 371 -5 125 -68 231 -180 307 -73
51 -166 82 -345 116 -19 4 -293 8 -607 10 l-573 3 0 -32z m1009 -111 c96 -35
145 -77 183 -160 46 -100 30 -314 -33 -437 -71 -138 -220 -208 -437 -204 -90
1 -97 2 -96 21 2 36 15 189 19 225 5 46 12 126 20 225 4 44 8 96 10 115 2 19
6 71 10 115 5 68 8 91 14 124 2 11 271 -10 310 -24z"/>
<path d="M17699 12102 c-9 -49 -5 -53 73 -79 150 -49 168 -95 144 -358 -10
-110 -16 -174 -21 -237 -3 -35 -8 -83 -10 -108 -6 -73 -14 -161 -20 -225 -3
-33 -10 -114 -16 -180 -11 -126 -14 -163 -24 -285 -3 -41 -8 -93 -10 -115 -2
-22 -7 -69 -10 -105 -7 -67 -33 -140 -63 -173 -38 -43 -118 -81 -187 -90 -25
-3 -30 -8 -31 -35 l-2 -32 482 3 481 2 3 35 c2 19 1 32 -3 29 -10 -10 -120 26
-155 51 -46 33 -72 92 -74 169 -1 59 9 205 19 286 2 17 7 66 10 110 3 44 8 98
10 120 3 22 7 64 10 94 2 30 10 58 16 62 7 4 31 5 53 3 23 -2 64 -6 92 -8 152
-14 206 -83 379 -491 76 -179 159 -346 210 -424 l27 -41 293 1 293 0 4 30 c4
25 1 30 -21 36 -45 11 -105 40 -132 65 -57 52 -77 89 -283 522 -105 221 -174
320 -250 361 l-35 19 83 31 c231 87 368 270 367 490 0 44 -2 87 -4 95 -17 76
-59 151 -114 202 -45 42 -142 97 -213 119 -71 22 -75 23 -140 34 -25 4 -54 10
-65 12 -32 8 -1165 13 -1166 5z m974 -129 c110 -25 188 -90 223 -185 22 -59
22 -222 0 -308 -57 -219 -198 -314 -474 -319 l-102 -2 5 48 c2 26 7 86 10 133
3 47 8 96 10 110 2 14 6 63 10 110 4 47 8 97 10 112 2 14 6 68 10 120 5 51 9
107 11 123 1 17 3 40 3 53 1 23 2 24 114 21 61 -1 138 -8 170 -16z"/>
<path d="M6326 9455 c-3 -10 1 -15 14 -16 38 -3 41 -4 64 -26 13 -13 25 -39
28 -60 3 -21 4 -256 3 -523 -1 -518 -2 -519 -52 -576 -45 -52 -126 -64 -168
-24 -19 18 -24 19 -34 6 -17 -20 39 -71 95 -86 107 -30 218 24 268 130 20 44
21 60 23 550 1 278 4 518 8 534 7 40 31 64 70 72 18 3 32 12 32 20 0 22 -342
21 -351 -1z"/>
<path d="M11136 9455 c3 -8 12 -15 20 -15 29 0 63 -24 76 -54 15 -37 20 -708
5 -769 -10 -40 -50 -76 -79 -72 -12 2 -18 -3 -18 -15 0 -16 14 -18 170 -18
142 -1 170 2 170 14 0 8 -3 14 -7 15 -85 8 -101 49 -99 265 l1 148 45 1 c66 1
125 -22 165 -64 20 -20 86 -113 148 -207 l112 -169 103 -2 c80 -2 102 0 102
11 0 7 -18 21 -40 31 -48 22 -87 68 -165 195 -72 117 -112 170 -154 205 l-32
27 48 23 c89 43 127 92 139 183 10 79 -10 138 -68 194 -78 76 -123 86 -410 87
-210 1 -237 0 -232 -14z m471 -58 c87 -55 122 -149 94 -254 -26 -97 -102 -144
-238 -145 l-88 -2 -2 218 -1 219 96 -5 c83 -4 103 -9 139 -31z"/>
<path d="M17313 9455 c0 -9 9 -15 22 -15 33 0 72 -36 81 -72 12 -59 8 -721 -5
-761 -11 -32 -52 -68 -76 -67 -18 1 -22 -1 -22 -13 0 -18 338 -21 349 -3 4 7
-6 15 -29 21 -20 5 -45 23 -57 38 -19 26 -21 43 -23 208 l-2 179 261 0 260 0
-4 -182 c-2 -122 -7 -190 -16 -205 -7 -12 -30 -28 -52 -34 -80 -24 -39 -34
136 -34 153 0 169 2 172 17 2 12 -1 16 -11 12 -27 -10 -75 23 -87 62 -9 25
-12 142 -13 389 0 326 2 356 19 391 15 31 27 41 57 48 20 5 37 15 37 23 0 10
-36 13 -175 13 -139 0 -175 -3 -175 -13 0 -8 17 -18 38 -23 61 -15 70 -45 72
-245 l1 -169 -63 0 c-77 -1 -358 -1 -414 0 l-42 0 0 163 c0 117 4 173 15 198
13 34 46 59 77 59 8 0 16 7 20 15 5 13 -19 15 -173 15 -151 0 -178 -2 -178
-15z"/>
<path d="M9482 9406 c-28 -31 -31 -48 -17 -84 24 -56 106 -56 129 0 16 37 11
60 -16 85 -28 25 -73 25 -96 -1z"/>
<path d="M10085 9264 c-36 -61 -80 -109 -132 -145 -61 -42 -57 -60 12 -56 49
2 55 0 56 -18 0 -11 1 -103 1 -205 0 -213 7 -256 51 -298 72 -68 187 -61 270
16 47 44 30 71 -20 32 -34 -27 -87 -35 -124 -19 -53 22 -61 57 -62 281 0 109
2 201 5 204 3 2 50 6 104 7 92 2 99 3 99 22 0 19 -7 20 -97 20 -54 1 -100 4
-104 7 -3 4 -6 47 -6 97 0 108 -14 122 -53 55z"/>
<path d="M13290 9281 c-22 -49 -92 -130 -136 -158 -54 -35 -60 -65 -11 -63 82
5 75 25 75 -203 -1 -263 6 -293 77 -337 69 -43 177 -26 240 37 47 47 31 78
-17 33 -46 -42 -125 -36 -162 13 -19 26 -20 43 -21 235 -1 114 0 212 2 217 2
6 44 9 103 9 98 -2 100 -1 100 21 0 22 -3 23 -87 23 -49 0 -95 1 -103 1 -12 1
-15 18 -15 98 0 81 -2 96 -16 98 -10 2 -22 -8 -29 -24z"/>
<path d="M16262 9268 c-28 -54 -87 -118 -140 -153 -48 -31 -47 -57 2 -55 80 5
73 25 73 -213 0 -117 4 -224 8 -237 29 -92 120 -135 223 -105 48 15 127 79
116 96 -7 11 -34 12 -34 1 0 -5 -17 -17 -38 -26 -66 -30 -129 -8 -150 52 -5
15 -9 118 -10 230 l0 202 41 1 c23 1 67 1 98 0 43 -1 58 3 63 15 11 28 -3 33
-102 31 l-97 -1 -2 70 c-1 38 -2 84 -2 102 -1 45 -22 40 -49 -10z"/>
<path d="M14760 9115 c-66 -14 -90 -26 -142 -73 -74 -67 -111 -176 -96 -284
15 -108 76 -190 177 -236 75 -34 193 -36 262 -3 56 26 115 86 121 123 5 26 2
24 -50 -23 -31 -28 -67 -55 -81 -61 -107 -40 -222 13 -277 129 -30 62 -45 183
-23 184 8 0 105 1 217 1 l202 0 0 32 c-1 94 -99 195 -207 212 -21 3 -40 7 -43
8 -3 2 -30 -2 -60 -9z m115 -53 c47 -24 73 -64 81 -128 l4 -31 -160 -2 -160
-2 0 23 c0 43 48 125 83 141 61 29 94 28 152 -1z"/>
<path d="M20796 9111 c-14 -16 -23 -17 -54 -9 -20 5 -49 12 -65 15 -103 20
-209 -60 -209 -159 1 -89 24 -115 170 -189 136 -67 163 -107 127 -184 -27 -56
-95 -71 -163 -36 -49 25 -76 56 -102 115 -29 69 -42 49 -44 -68 -1 -80 2 -96
15 -99 11 -3 21 4 28 19 13 29 17 29 83 3 113 -46 200 -21 257 72 26 42 28
124 5 171 -20 41 -46 61 -159 119 -99 51 -137 91 -129 137 3 14 10 32 16 39
12 15 71 33 95 28 10 -2 23 -4 29 -4 16 -1 70 -52 83 -78 6 -12 11 -31 11 -42
0 -30 40 -29 41 2 3 56 -3 153 -10 160 -4 4 -15 -1 -25 -12z"/>
<path d="M7137 9106 c-81 -29 -151 -101 -183 -187 -34 -93 -15 -231 41 -306
86 -111 274 -153 396 -86 60 32 109 85 109 117 0 22 -4 20 -46 -20 -61 -59
-95 -75 -157 -76 -63 -1 -94 11 -141 53 -57 50 -96 142 -99 233 l-1 39 217 0
c215 -1 217 0 217 21 0 76 -63 164 -144 202 -59 27 -148 31 -209 10z m171 -53
c38 -28 59 -65 63 -113 l4 -35 -157 -1 -158 -2 0 26 c0 38 37 108 68 128 58
38 126 37 180 -3z"/>
<path d="M7895 9105 c-49 -25 -93 -82 -101 -131 -5 -35 -1 -53 17 -91 22 -45
32 -52 138 -108 144 -75 179 -120 145 -186 -45 -88 -181 -72 -245 29 -16 25
-29 54 -29 64 0 11 -7 18 -19 18 -17 0 -19 -8 -18 -100 0 -90 2 -100 19 -100
10 0 18 6 18 14 0 24 29 26 83 6 71 -26 115 -30 161 -15 131 45 167 218 63
307 -17 15 -67 45 -112 67 -122 60 -151 98 -125 161 16 38 68 54 122 40 43
-12 93 -66 103 -109 4 -20 13 -31 24 -31 16 0 18 11 18 90 0 81 -1 90 -18 90
-11 0 -19 -4 -19 -9 0 -16 -33 -18 -74 -4 -51 17 -114 16 -151 -2z"/>
<path d="M8499 9110 c-20 -4 -44 -5 -53 -4 -10 1 -16 -5 -16 -17 0 -14 7 -19
29 -19 16 0 39 -8 51 -18 21 -17 22 -23 21 -202 -1 -112 3 -198 10 -220 28
-87 94 -134 188 -134 65 1 119 25 171 78 l36 35 -1 -42 c-2 -65 -1 -67 73 -62
37 2 84 4 105 4 52 1 48 24 -7 39 -32 8 -45 17 -50 34 -3 13 -6 139 -6 282 l0
259 -92 -7 c-127 -9 -133 -11 -136 -29 -3 -14 5 -17 37 -17 23 0 46 -7 55 -16
18 -18 18 -14 20 -229 l1 -160 -29 -33 c-55 -63 -130 -81 -194 -48 -59 30 -63
52 -64 307 l-1 230 -56 -2 c-31 -2 -72 -6 -92 -9z"/>
<path d="M9457 9113 c-2 -1 -24 -3 -50 -4 -37 -2 -47 -6 -47 -20 0 -13 8 -17
29 -17 43 1 81 -27 81 -60 3 -155 0 -418 -5 -432 -6 -20 -33 -33 -73 -35 -12
-1 -25 -5 -28 -8 -18 -18 22 -24 160 -25 124 0 156 3 160 14 3 8 -1 15 -9 15
-8 1 -19 3 -25 4 -5 1 -14 3 -19 4 -5 0 -17 8 -25 17 -14 13 -16 53 -16 285
l0 270 -66 -3 c-36 -1 -66 -4 -67 -5z"/>
<path d="M12497 9106 c-39 -14 -54 -24 -101 -65 -127 -114 -131 -344 -7 -460
81 -76 209 -105 324 -72 63 18 147 92 147 129 l0 26 -37 -35 c-64 -60 -97 -78
-152 -82 -86 -7 -171 45 -215 132 -17 34 -43 151 -38 174 4 20 -10 19 235 18
l197 -1 0 31 c0 73 -61 155 -145 195 -58 27 -147 31 -208 10z m150 -37 c45
-17 93 -97 93 -157 0 -6 -66 -10 -160 -10 l-160 0 0 25 c0 13 9 40 19 61 45
87 116 115 208 81z"/>
<path d="M13846 9113 c-1 -1 -18 -3 -37 -4 -49 -2 -71 -9 -67 -21 2 -6 13 -13
24 -14 78 -11 83 -14 93 -52 15 -56 9 -438 -7 -454 -7 -7 -29 -17 -49 -23 -72
-20 -34 -30 122 -32 128 -1 155 1 155 13 0 8 -3 14 -7 15 -87 8 -88 11 -88
227 l0 187 50 33 c42 29 56 33 88 28 22 -4 56 -15 78 -26 21 -11 40 -20 43
-20 6 0 46 89 46 101 0 17 -65 49 -98 49 -40 0 -81 -20 -146 -71 -27 -22 -52
-39 -57 -39 -4 0 -8 17 -7 38 1 77 5 73 -68 70 -36 -1 -66 -4 -68 -5z"/>
<path d="M15485 9101 c-49 -23 -89 -64 -110 -114 -27 -65 3 -80 34 -18 51 100
189 115 246 27 21 -32 30 -117 13 -128 -7 -4 -51 -20 -98 -34 -161 -50 -207
-84 -217 -163 -14 -102 73 -183 187 -175 42 3 75 20 114 55 20 19 36 17 36 -4
1 -18 49 -50 79 -52 62 -4 101 27 121 94 12 42 -13 43 -35 1 -18 -35 -42 -39
-54 -8 -4 12 -8 99 -8 194 -1 187 -9 231 -52 277 -61 67 -171 87 -256 48z
m191 -368 c-1 -54 -5 -105 -11 -114 -14 -24 -76 -59 -103 -59 -76 0 -118 102
-73 176 13 22 36 37 77 53 33 13 68 27 79 31 11 5 23 9 26 9 3 1 6 -43 5 -96z"/>
<path d="M18800 9103 c-83 -30 -143 -83 -182 -163 -17 -35 -22 -64 -22 -130
-1 -73 3 -93 27 -142 49 -101 148 -164 267 -171 161 -10 288 72 336 215 20 63
14 167 -14 230 -25 56 -95 126 -152 151 -61 28 -197 33 -260 10z m200 -38
c135 -70 156 -371 33 -487 -74 -70 -181 -64 -250 16 -78 88 -87 296 -18 406
51 81 151 109 235 65z"/>
<path d="M19585 9114 c-5 -2 -30 -4 -55 -6 -58 -5 -62 -30 -7 -39 21 -3 43
-11 50 -18 8 -8 13 -72 14 -211 2 -175 5 -204 22 -237 65 -129 221 -145 341
-37 l40 36 0 -51 0 -51 63 4 c34 3 84 5 110 5 40 1 48 4 45 18 -2 9 -12 17
-23 18 -36 3 -63 16 -70 33 -3 9 -6 136 -6 281 l1 263 -102 -7 c-57 -4 -108
-8 -115 -8 -6 0 -14 -8 -16 -17 -3 -13 3 -17 31 -18 19 -1 45 -8 58 -17 24
-15 24 -17 24 -205 l0 -190 -26 -29 c-79 -89 -226 -76 -252 22 -4 17 -8 130
-7 250 l1 218 -56 -2 c-30 -1 -59 -4 -65 -5z"/>
<path d="M21351 9108 c-83 -24 -162 -104 -193 -199 -20 -59 -16 -180 6 -233
28 -63 101 -133 165 -157 80 -30 192 -30 255 1 53 25 120 92 122 121 2 26 -6
24 -46 -17 -49 -50 -88 -71 -139 -77 -96 -10 -191 55 -229 156 -23 60 -39 167
-25 168 4 0 103 1 218 2 l210 2 -4 40 c-4 53 -25 91 -74 137 -66 61 -171 84
-266 56z m156 -46 c34 -18 63 -66 69 -115 l6 -44 -161 0 -161 0 6 31 c21 124
135 184 241 128z"/>
</g>
</svg>
